<svg xmlns="http://www.w3.org/2000/svg" viewBox="0 0 28 28">
    <rect width="28" height="28" style="fill: #0d2055;"/>
    <g id="Grupo_556">
        <path id="Trazado_1367" d="M11.43,18.66h3.35c1.23,0,2.34-.39,2.34-1.9s-.95-2.06-2.29-2.06h-3.4v3.96ZM11.43,12.63h3.18c1.12,0,1.95-.5,1.95-1.73,0-1.34-1.06-1.62-2.18-1.62h-2.96v3.35ZM8.25,6.83h6.75c2.73,0,4.57.89,4.57,3.57.06,1.28-.73,2.51-1.95,3.01,1.62.39,2.73,1.95,2.62,3.63,0,2.9-2.45,4.13-5.08,4.13h-6.92V6.83Z" style="fill: #fff;"/>
    </g>
</svg>
