
<svg xmlns="http://www.w3.org/2000/svg" viewBox="0 0 18 18">
  <rect x="0" y="0" width="18" height="18" style="fill: #232b54;"/>
  <g>
    <path d="M9,7.4c-1.89,0-3.45,1.46-3.56,3.32,0,.05.01.09.05.13.03.04.08.05.13.05h1.26c.09,0,.16-.07.17-.16.1-1,.94-1.76,1.96-1.76s1.86.76,1.96,1.76c0,.09.08.16.17.16h1.25s.1-.02.13-.05.05-.08.05-.13c-.11-1.87-1.68-3.32-3.56-3.32" style="fill: #fff; fill-rule: evenodd;"/>
    <path d="M9,9.33c-.89,0-1.62.72-1.62,1.6s.73,1.6,1.62,1.6,1.62-.72,1.62-1.6-.73-1.6-1.62-1.6" style="fill: #fff; fill-rule: evenodd;"/>
    <path d="M9,5.47c-1.43,0-2.79.54-3.82,1.53-1.03.98-1.62,2.3-1.68,3.72,0,.05.02.09.05.13.04.04.08.05.13.05h1.25c.09,0,.17-.07.17-.16.1-2.07,1.81-3.69,3.91-3.69s3.81,1.62,3.91,3.69c0,.09.08.16.17.16h1.25s.09-.02.13-.05.05-.08.05-.13c-.05-1.41-.65-2.73-1.68-3.72-1.03-.98-2.39-1.53-3.82-1.53" style="fill: #fff; fill-rule: evenodd;"/>
  </g>
</svg>