<?xml version="1.0" encoding="UTF-8"?>
<svg id="Layer_1" xmlns="http://www.w3.org/2000/svg" viewBox="0 0 18 18">
  <rect width="18" height="18" style="fill: #072c76;"/>
  <path d="M8.84,8.77c.16-.23.23-.47.23-.62q0-.08-.08-.16c-.16-.08-.47,0-.78.23v-1.09c.31.23.62.39.78.23,0,0,.08-.08.08-.16,0-.16-.08-.39-.31-.54h1.09c-.16.23-.23.47-.23.62q0,.08.08.16c.08.08.47,0,.78-.23v1.09c-.31-.23-.62-.39-.78-.23,0,0-.08.08-.08.16,0,.16.08.39.31.54h-1.09Z" style="fill: #fff;"/>
  <path id="Layer" d="M10.65,7.63l.3-.3c.18-.18.37-.12.85-.06.65-.04,1.1-.12,1.34-.24.37-.24.35-.45-.06-.61-.49-.18-.67-.24-.67-.73,0-1.34.67-1.46.73-2.01.3-.24-.06-.67-1.1-.67-.91,0-1.89.24-2.98.85-.37.45-.55,1.12-.55,2.01.18.24.49.37.85.37s.69-.1.97-.3c.06-1.46,1.58-2.62,2.38-2.56.37,0,.43.12.18.18-1.28.06-2.07,1.46-1.95,2.62-.3.06-.43.06-.55-.06-.24.18-.61.3-1.04.3-.37,0-.61-.06-.79-.24.12.77.63,1.28,1.52,1.52.24.08.43.06.55-.06ZM10.41,6.47c.18.06.37.06.61,0,.16.28.57.49,1.22.61-.69.12-1.3-.08-1.83-.61ZM8.64,3.91c-1.06.41-1.83.95-2.31,1.64-.12.12-.12.18-.37.18-.37-.04-.63-.06-.79-.06-.53,0-.81.12-.85.37,0,.12.43.37.55.79.12.18.24.49.18.79-.12,1.58,0,2.62.3,3.17-.28-1.75.04-3.05.97-3.9.55-.49,1.28.06.67.67-.97.85-1.46,1.71-1.52,2.86,0,.45.06.79.18,1.04-.16-1.06.06-1.93.67-2.62.28-.32.49-.39.61-.18.12.18.06.24-.24.61-.65.65-.97,1.48-.97,2.5,0,.85.24,1.4.61,1.71.12.06.24,0,.24-.12,0-.18-.24-.24.06-.67.18-.18.43-.3.61-.18-.2.2-.3.41-.3.61.53.53,1.34.95,2.44,1.28-.55-.67-1.04-1.22-1.16-1.89-.18-.61-.18-1.16.12-1.89.08.04.22.1.43.18.04-.24.02-.51-.06-.79.43-.61,1.28-.97,1.52-1.89v-.12c-2.23-.41-2.76-1.77-1.58-4.08ZM12.66,4.09c-.32.32-.47.83-.43,1.52,0,.55.18.73.73.91.49.12.24.43-.3.43-.97-.06-1.46-.37-1.46-.91,0-.97.55-1.89,1.34-2.13.3-.12.37,0,.12.18ZM11.75,11.34c-.28.32-.49.81-.61,1.46-.06.12-.12.06-.06,0,0-.73.14-1.3.43-1.71-.08-.12-.18-.24-.3-.37-.24-.37-.55-.24-.61.06-.3,1.16-.18,2.19.12,2.92-.89.04-1.6-.18-2.13-.67.49.97,1.46,1.95,2.01,1.95.18,0,.18-.12.12-.24-.04-.04-.08-.12-.12-.24h-.37v-.06c.79.12,1.46-.12,2.44-.61.93-.73,1.24-1.28.91-1.64-.12-.12-.43-.18-.73-.24-.18.18-.37.49-.43.91-.06.06-.06,0-.06,0,0-.37.18-.73.3-.97-.12-.04-.24-.08-.37-.12-.2.24-.37.61-.49,1.1,0,.06-.06.06-.06,0,.04-.53.14-.93.3-1.22-.12-.12-.22-.22-.3-.3ZM11.38,6.23c.06.3.37.49.85.49.18.06.37,0,.37-.12,0-.18-.24-.18-.49-.3-.18-.24-.18-.37-.49-.37-.18,0-.3.12-.24.3ZM10.29,3.85c0-.18.18-.3.3-.3s.24.12.18.3c0,.12-.18.24-.3.24s-.24-.12-.18-.24Z" style="fill: #fff; fill-rule: evenodd;"/>
</svg>