<?xml version="1.0" encoding="UTF-8"?>
<svg id="Layer_1" xmlns="http://www.w3.org/2000/svg" xmlns:xlink="http://www.w3.org/1999/xlink" viewBox="0 0 18 18">
  <defs>
    <radialGradient id="radial-gradient" cx="6.94" cy="15.03" fx="6.94" fy="15.03" r="7.87" gradientTransform="translate(0 22) scale(1 -1)" gradientUnits="userSpaceOnUse">
      <stop offset="0" stop-color="#adc46a"/>
      <stop offset=".61" stop-color="#657733"/>
      <stop offset="1" stop-color="#384125"/>
    </radialGradient>
    <radialGradient id="radial-gradient-2" cx="23.97" cy="7.84" fx="23.97" fy="7.84" r="6.33" gradientTransform="translate(-15.12 16.81) scale(.98 -1.02)" gradientUnits="userSpaceOnUse">
      <stop offset="0" stop-color="#fff"/>
      <stop offset=".14" stop-color="#dfe4d7"/>
      <stop offset=".45" stop-color="#a1ae8b"/>
      <stop offset=".71" stop-color="#728551"/>
      <stop offset=".9" stop-color="#556c31"/>
      <stop offset="1" stop-color="#4a642e"/>
    </radialGradient>
    <radialGradient id="radial-gradient-3" cx="24.51" cy="17.17" fx="24.51" fy="17.17" r="6.35" gradientTransform="translate(-15.6 25.6) scale(.98 -.98)" xlink:href="#radial-gradient-2"/>
  </defs>
  <rect width="18" height="18" style="fill: #fafafa;"/>
  <path d="M8.84,8.77c.16-.23.23-.47.23-.62q0-.08-.08-.16c-.16-.08-.47,0-.78.23v-1.09c.31.23.62.39.78.23,0,0,.08-.08.08-.16,0-.16-.08-.39-.31-.54h1.09c-.16.23-.23.47-.23.62q0,.08.08.16c.08.08.47,0,.78-.23v1.09c-.31-.23-.62-.39-.78-.23,0,0-.08.08-.08.16,0,.16.08.39.31.54h-1.09Z" style="fill: #fff;"/>
  <g>
    <circle cx="8.69" cy="8.96" r="4.68" style="fill: url(#radial-gradient);"/>
    <path d="M8.55,14.44h.1c2.88,0,5.23-2.32,5.37-5.29h-5.46v5.29h0Z" style="fill: url(#radial-gradient-2); isolation: isolate; opacity: .65;"/>
    <path d="M14.01,8.81c-.06-2.91-2.44-5.25-5.37-5.25h-.1v5.25h5.46Z" style="fill: url(#radial-gradient-3); isolation: isolate; opacity: .65;"/>
  </g>
</svg>