<?xml version="1.0" encoding="UTF-8"?>
<svg id="Layer_1" xmlns="http://www.w3.org/2000/svg" viewBox="0 0 18 18">
  <rect width="18" height="18" style="fill: #005f5a;"/>
  <g>
    <path d="M4.98,9.35l-1.97,1.93s2.34,2.53,6.02,2.53,5.98-2.44,5.98-2.44l-2.02-1.97s-1.3,1.59-3.95,1.59-4.05-1.64-4.05-1.64Z" style="fill: #f0643c;"/>
    <path d="M11.49,7.69c.12.37.12.76,0,1.12-.12.36-.35.67-.66.89-.31.22-.69.33-1.07.32h-2.95v-5.83h2.64c.44,0,.87.18,1.18.49.31.31.49.74.49,1.18,0,.33-.11.66-.29.93.31.22.55.53.66.89h0ZM7.97,6.45h1.48c.16,0,.31-.06.43-.17.12-.11.18-.26.19-.42,0-.09-.02-.16-.05-.24-.04-.07-.08-.14-.14-.2-.06-.05-.13-.1-.2-.13-.08-.03-.16-.04-.23-.04h-1.48v1.2ZM10.06,8.91c.1-.04.18-.08.26-.15.07-.07.13-.15.17-.24.04-.09.06-.19.06-.29s-.02-.2-.06-.29c-.04-.09-.1-.17-.17-.24-.08-.07-.16-.12-.26-.15-.09-.03-.19-.05-.29-.04h-1.8v1.44h1.8c.1.01.2,0,.29-.04Z" style="fill: #fff; fill-rule: evenodd;"/>
  </g>
</svg>