<svg xmlns="http://www.w3.org/2000/svg" viewBox="0 0 18 18">
    <rect x="0" y="0" width="18" height="18" style="fill: #1f315a;"/>
    <g>
        <path d="M4.25,5.35h2.23c.74,0,2.02.3,2.02,1.85,0,1.28-.88,1.65-1.21,1.75v.03c.57.07,1.55.51,1.55,1.99,0,1.92-1.52,2.12-2.5,2.12h-2.09v-7.76ZM5.4,8.56h.71c.51,0,1.28-.1,1.28-1.18s-.78-1.15-1.38-1.15h-.61v2.33ZM5.4,12.2h.88c1.01,0,1.52-.57,1.52-1.32,0-1.28-1.18-1.42-1.65-1.42h-.74v2.73Z" style="fill: #fff;"/>
        <path d="M9.63,5.35h1.89c1.15,0,2.73.03,2.73,2.09,0,1.92-1.69,2.09-2.46,2.09h-1.01v3.61h-1.15s0-7.79,0-7.79ZM10.74,8.59h.81c.81,0,1.45-.24,1.45-1.18,0-1.18-.88-1.18-1.45-1.18h-.78v2.36h-.03Z" style="fill: #fff;"/>
    </g>
</svg>
