<svg width="232" height="228" viewBox="0 0 232 228" fill="none" xmlns="http://www.w3.org/2000/svg">
<path d="M115.743 0C51.8154 0 0 51.0387 0 114C0 176.961 51.8154 228 115.743 228C179.671 228 231.487 176.961 231.487 114C231.487 51.0387 179.671 0 115.743 0ZM196.483 113.424C196.271 116.257 193.906 118.499 190.95 118.499C187.994 118.499 185.508 116.03 185.386 113.061C185.023 108.213 182.749 103.88 179.307 100.759C175.866 97.6386 171.243 95.7297 166.194 95.7297C156.083 95.7297 147.791 103.365 147.048 113.061L146.972 114.576C146.957 120.908 144.91 126.741 141.424 131.528C135.936 139.103 126.87 144.057 116.653 144.057H116.607C106.39 144.057 97.3245 139.103 91.8367 131.528C88.35 126.741 86.3035 120.908 86.2883 114.576L86.2125 113.061C85.4697 103.38 77.1926 95.7297 67.066 95.7297C62.0027 95.7297 57.4093 97.6537 53.9529 100.759C50.5117 103.88 48.2378 108.213 47.8739 113.061C47.7678 116.015 45.4029 118.499 42.3104 118.499C39.2178 118.499 36.9894 116.242 36.7771 113.424C36.762 113.121 36.8529 111.909 36.8529 111.909C38.187 96.7447 51.2091 84.8524 67.0811 84.8524C77.3138 84.8524 86.3641 89.8063 91.7912 97.3659C95.0505 101.835 97.0668 107.198 97.3396 113.046C97.3548 113.5 97.3851 113.985 97.3851 114.439C97.3851 124.802 105.996 133.194 116.592 133.194H116.638C127.234 133.194 135.845 124.802 135.845 114.439C135.845 113.985 135.86 113.5 135.89 113.046C136.178 107.198 138.21 101.835 141.439 97.3659C146.927 89.7911 155.977 84.8524 166.21 84.8524C182.097 84.8524 195.119 96.7599 196.438 111.909C196.438 111.909 196.544 113.121 196.498 113.424H196.483Z" fill="#1F49B6"/>
</svg>
