<svg width="142" height="174" viewBox="0 0 142 174" fill="none" xmlns="http://www.w3.org/2000/svg">
<path d="M83.0552 0H141.991L141.972 92.9548C141.972 94.6564 141.771 97.4312 141.491 99.1099C137.372 123.675 119.448 141.278 94.5618 141.31C75.8947 141.333 35.9737 141.31 35.9737 141.31C35.9737 141.31 35.9554 100.518 35.9829 82.9103C35.9967 75.127 41.3858 69.3709 48.8618 69.1462C56.2461 68.9215 60.5328 68.7294 60.5328 68.7294V84.342L85.8674 58.267C85.8674 58.267 64.8462 58.267 48.6233 58.267C34.1334 58.267 24.7689 70.8982 24.9798 83.5937C25.3376 105.467 25.0807 130.188 25.0807 152.066H78.9933L58.7467 173.141H0C0 173.141 0.0429976 112.888 0.0384111 82.9287C0.0384111 80.8005 0.176006 78.6632 0.409918 76.5488C3.18017 51.5111 24.512 32.2432 49.7057 32.1056C67.6115 32.0092 105.588 32.0514 105.588 32.0514C105.588 50.879 105.597 71.944 105.588 90.7716C105.583 98.5228 99.9647 104.224 92.241 104.261C83.6322 104.302 80.4651 104.274 80.4651 104.274V90.1418L56.1268 115.163C56.1268 115.163 74.629 115.163 92.4107 115.163C106.52 115.163 116.577 104.334 116.577 90.1662C116.577 68.0592 116.577 20.9053 116.577 20.9053H63.1121L83.0552 0Z" fill="#493FEE"/>
</svg>
